<svg xmlns="http://www.w3.org/2000/svg" width="1440" height="900" viewBox="0 0 1440 900">
<defs><filter id="s"><feDropShadow dx="0" dy="8" stdDeviation="18" flood-opacity=".08"/></filter><style>text{font-family:Inter,Arial,sans-serif;fill:#17352f}.muted{fill:#74847f}.small{font-size:14px}.label{font-size:12px;font-weight:700;letter-spacing:1.4px}.title{font-size:34px;font-weight:750}.h2{font-size:20px;font-weight:700}.body{font-size:16px}.chip{font-size:12px;font-weight:700}</style></defs>
<rect width="1440" height="900" fill="#f5f8f6"/><rect x="32" y="28" width="1376" height="844" rx="28" fill="#fff" filter="url(#s)"/>
<rect x="32" y="28" width="230" height="844" rx="28" fill="#123b34"/><text x="70" y="84" fill="#fff" font-size="25" font-weight="750">CareOS</text><text x="70" y="112" fill="#a9c7bd" class="small">Clinical focus</text>
<g fill="#d9eee7"><rect x="58" y="164" width="176" height="48" rx="12" opacity=".16"/><text x="78" y="194" fill="#fff" class="body">Versorgung</text><text x="78" y="250" fill="#c6d9d3" class="body">Verlauf</text><text x="78" y="300" fill="#c6d9d3" class="body">Dokumentation</text><text x="78" y="350" fill="#c6d9d3" class="body">Eingang</text><text x="78" y="400" fill="#c6d9d3" class="body">Pilot &amp; Wirkung</text></g>
<text x="310" y="85" class="label" fill="#558176">CAREOS V9 · VERSORGUNG</text><text x="310" y="132" class="title">Was braucht gerade dich?</text><text x="310" y="162" class="body muted">Nur die wenigen Dinge, die heute eine Handlung oder Prüfung brauchen.</text>
<rect x="310" y="205" width="320" height="610" rx="20" fill="#f8faf9" stroke="#e0e8e4"/><text x="336" y="245" class="label muted">PATIENTEN</text>
<g><rect x="330" y="268" width="280" height="112" rx="16" fill="#fff" stroke="#d8e4df"/><text x="350" y="300" class="h2">Farid Rahman</text><text x="350" y="328" class="small muted">66 J. · Station 3A · Zi. 312</text><rect x="350" y="344" width="148" height="24" rx="12" fill="#fff0e5"/><text x="364" y="361" class="chip" fill="#a96528">1 Punkt prüfen</text></g>
<g opacity=".72"><rect x="330" y="394" width="280" height="96" rx="16" fill="#fff" stroke="#e4eae7"/><text x="350" y="426" class="h2">Anna Keller</text><text x="350" y="455" class="small muted">81 J. · Station 3A</text></g><g opacity=".72"><rect x="330" y="504" width="280" height="96" rx="16" fill="#fff" stroke="#e4eae7"/><text x="350" y="536" class="h2">Lena Hoffmann</text><text x="350" y="565" class="small muted">54 J. · Station 3A</text></g>
<rect x="658" y="205" width="700" height="610" rx="20" fill="#fff" stroke="#e0e8e4"/><text x="690" y="246" class="label muted">FARID RAHMAN · JETZT RELEVANT</text><text x="690" y="286" font-size="27" font-weight="750">3 Dinge, die jetzt zählen</text>
<g><rect x="690" y="320" width="636" height="112" rx="16" fill="#fff7f6" stroke="#efd1cd"/><text x="714" y="350" class="label" fill="#a94c42">ALLERGIE</text><text x="714" y="380" class="h2">Penicillin · Hautausschlag; ASS · Urtikaria</text><text x="714" y="409" class="small muted">Quelle: ePA · heute 07:55</text></g>
<g><rect x="690" y="448" width="306" height="126" rx="16" fill="#f7fbfa" stroke="#dce9e4"/><text x="714" y="480" class="label" fill="#397765">LETZTE NIERENFUNKTION</text><text x="714" y="511" class="h2">Krea 1,1 mg/dl</text><text x="714" y="539" class="body">eGFR 76 ml/min</text><text x="714" y="561" class="small muted">Labor · heute 08:20</text></g>
<g><rect x="1020" y="448" width="306" height="126" rx="16" fill="#f7fbfa" stroke="#dce9e4"/><text x="1044" y="480" class="label" fill="#397765">VORMEDIKATION</text><text x="1044" y="511" class="h2">Ramipril · Metformin</text><text x="1044" y="539" class="body">Atorvastatin</text><text x="1044" y="561" class="small muted">KIS + Hausarzt</text></g>
<rect x="690" y="600" width="636" height="84" rx="16" fill="#ecf7f3"/><text x="714" y="630" class="label" fill="#397765">NÄCHSTER SCHRITT</text><text x="714" y="660" class="body">Keine ungeklärte sicherheitskritische Aufgabe. Vollständiger Verlauf bleibt einen Klick entfernt.</text>
<rect x="690" y="716" width="230" height="52" rx="14" fill="#123b34"/><text x="725" y="749" fill="#fff" class="body" font-weight="700">Verlauf durchsuchen</text><rect x="936" y="716" width="190" height="52" rx="14" fill="#fff" stroke="#cfddd7"/><text x="974" y="749" class="body" font-weight="700">Neue Notiz</text>
</svg>