<svg xmlns="http://www.w3.org/2000/svg" width="390" height="844" viewBox="0 0 390 844">
<defs><style>
text{font-family:-apple-system,BlinkMacSystemFont,"Segoe UI",Arial,sans-serif;fill:#18251f}.muted{fill:#6f7b76}.green{fill:#0c7a63}.card{fill:#fff;stroke:#dbe4df}.label{font-size:11px;font-weight:700;fill:#6f7b76}.title{font-size:18px;font-weight:700}.small{font-size:11px;fill:#6f7b76}
</style></defs>
<rect width="390" height="844" fill="#f3f7f5"/>
<rect x="0" y="0" width="390" height="62" fill="#fff"/>
<rect x="16" y="17" rx="11" width="34" height="34" fill="#11846b"/><text x="33" y="40" text-anchor="middle" fill="#fff" font-size="18" font-weight="800">C</text>
<text x="60" y="39" font-size="16" font-weight="750">CareOS</text>
<rect x="195" y="18" width="176" height="30" rx="15" fill="#fafcfb" stroke="#dbe4df"/><text x="283" y="37" text-anchor="middle" class="small">Synthetic demo · Infektiologie</text>
<text x="16" y="86" font-size="12" font-weight="750" class="green">Station I2 · Zimmer 11</text><rect x="300" y="72" width="73" height="30" rx="15" fill="#e3f3ed"/><text x="337" y="91" text-anchor="middle" font-size="12" font-weight="700" class="green">Im Fokus</text>
<text x="16" y="119" font-size="27" font-weight="800">Mara Novak</text><text x="16" y="143" font-size="13" class="muted">12.06.1987 · INF-20491 · aufgenommen 14.08.</text>
<rect class="card" x="16" y="168" width="358" height="176" rx="28"/><text x="38" y="203" class="label">HEUTE · 07:31</text><text x="38" y="235" font-size="22" font-weight="800">Was ändert heute die</text><text x="38" y="260" font-size="22" font-weight="800">infektiologische Entscheidung?</text><text x="38" y="291" font-size="13" class="muted">Nur neue, offene oder sicherheitsrelevante</text><text x="38" y="309" font-size="13" class="muted">Informationen. Tippe auf eine Karte für die Quelle.</text>
<rect class="card" x="16" y="364" width="171" height="151" rx="18"/><circle cx="38" cy="387" r="4" fill="#c74f5b"/><text x="49" y="391" class="label">Mikrobiologie</text><text x="32" y="426" class="title">E. coli · 2/2</text><text x="32" y="448" class="title">positiv</text><text x="32" y="477" class="small">Blutkultur · finales</text><text x="32" y="494" class="small">Resistogramm offen</text><text x="32" y="508" font-size="10" class="muted">↗ Mikrobiologie · 06:42</text>
<rect class="card" x="203" y="364" width="171" height="151" rx="18"/><circle cx="225" cy="387" r="4" fill="#d99b25"/><text x="236" y="391" class="label">Resistenz</text><text x="219" y="426" class="title">Cipro R ·</text><text x="219" y="448" class="title">Ceftriaxon S</text><text x="219" y="477" class="small">vorläufige</text><text x="219" y="494" class="small">Empfindlichkeit</text><text x="219" y="508" font-size="10" class="muted">↗ LIS · 07:05</text>
<rect class="card" x="16" y="529" width="171" height="151" rx="18"/><circle cx="38" cy="552" r="4" fill="#4a7da0"/><text x="49" y="556" class="label">Aktuelle Therapie</text><text x="32" y="592" class="title">Ceftriaxon 2 g i.v.</text><text x="32" y="619" class="small">1×/Tag · dokumentiert</text><text x="32" y="636" class="small">seit gestern 19:10</text><text x="32" y="671" font-size="10" class="muted">↗ KIS Medikation</text>
<rect class="card" x="203" y="529" width="171" height="151" rx="18"/><circle cx="225" cy="552" r="4" fill="#d99b25"/><text x="236" y="556" class="label">Hygiene</text><text x="219" y="592" class="title">Kontaktmaßnahmen</text><text x="219" y="614" class="title">aktiv</text><text x="219" y="642" class="small">MRGN-Screening offen</text><text x="219" y="671" font-size="10" class="muted">↗ Hygieneauftrag · 07:22</text>
<rect x="0" y="770" width="390" height="74" fill="#fff" stroke="#dbe4df"/><rect x="8" y="779" width="73" height="54" rx="14" fill="#e5f2ee"/><text x="44" y="803" text-anchor="middle" font-size="16" class="green">⌂</text><text x="44" y="823" text-anchor="middle" font-size="10" font-weight="700" class="green">Heute</text><text x="122" y="803" text-anchor="middle" font-size="15" class="muted">◉</text><text x="122" y="823" text-anchor="middle" font-size="10" class="muted">Mikro</text><text x="195" y="803" text-anchor="middle" font-size="15" class="muted">≡</text><text x="195" y="823" text-anchor="middle" font-size="10" class="muted">Verlauf</text><text x="270" y="803" text-anchor="middle" font-size="15" class="muted">↗</text><text x="270" y="823" text-anchor="middle" font-size="10" class="muted">Übergabe</text><text x="346" y="803" text-anchor="middle" font-size="15" class="muted">♡</text><text x="346" y="823" text-anchor="middle" font-size="10" class="muted">Feedback</text>
</svg>